<?xml version="1.0" encoding="iso-8859-1"?>
<!-- Uploaded to: SVG Repo, www.svgrepo.com, Generator: SVG Repo Mixer Tools -->
<svg version="1.1" id="Layer_1" xmlns="http://www.w3.org/2000/svg" xmlns:xlink="http://www.w3.org/1999/xlink" 
	 viewBox="0 0 473.935 473.935" xml:space="preserve">
<circle style="fill:#E79E2D;" cx="236.967" cy="236.967" r="236.967"/>
<path style="fill:#ECE1D0;" d="M321.719,67.315l-216.38,282.804l216.788-0.09L321.719,67.315z M169.836,310.393l115.898-151.479
	l0.217,151.43L169.836,310.393z"/>
<g>
	<g>
		<rect x="301.738" y="108.961" style="fill:#E8C790;" width="20.15" height="5.089"/>
		<rect x="301.738" y="136.991" style="fill:#E8C790;" width="20.15" height="5.093"/>
		<rect x="301.738" y="165.013" style="fill:#E8C790;" width="20.146" height="5.089"/>
		<rect x="301.738" y="193.039" style="fill:#E8C790;" width="20.146" height="5.081"/>
		<rect x="309.932" y="122.529" style="fill:#E8C790;" width="11.989" height="5.081"/>
		<rect x="309.932" y="150.57" style="fill:#E8C790;" width="11.977" height="5.081"/>
		<rect x="309.932" y="178.569" style="fill:#E8C790;" width="11.985" height="5.089"/>
		<rect x="301.738" y="222.861" style="fill:#E8C790;" width="20.15" height="5.078"/>
		<rect x="301.738" y="250.887" style="fill:#E8C790;" width="20.146" height="5.081"/>
		<rect x="309.932" y="208.403" style="fill:#E8C790;" width="11.977" height="5.085"/>
		<rect x="309.932" y="236.444" style="fill:#E8C790;" width="11.977" height="5.081"/>
		<rect x="301.738" y="278.838" style="fill:#E8C790;" width="20.15" height="5.093"/>
		<rect x="301.738" y="306.864" style="fill:#E8C790;" width="20.146" height="5.089"/>
		<rect x="301.738" y="334.89" style="fill:#E8C790;" width="20.146" height="5.081"/>
		<rect x="309.932" y="264.395" style="fill:#E8C790;" width="11.989" height="5.089"/>
		<rect x="309.932" y="292.421" style="fill:#E8C790;" width="11.977" height="5.081"/>
		<rect x="309.932" y="320.447" style="fill:#E8C790;" width="11.985" height="5.078"/>
	</g>
	<path style="fill:#F5DFB5;" d="M357.973,313.416c2.526,2.526,2.526,6.615,0.004,9.141l-6.447,6.447
		c-2.526,2.518-6.619,2.514-9.145,0l-199.71-199.722c-2.526-2.518-2.526-6.612,0-9.134l6.443-6.447c2.522-2.514,6.615-2.522,9.137,0
		L357.973,313.416z"/>
	
		<rect x="240.777" y="62.46" transform="matrix(-0.7071 0.7071 -0.7071 -0.7071 594.838 174.0356)" style="fill:#F2E8D3;" width="41.197" height="295.505"/>
	<polygon style="fill:#ECE1D0;" points="367.028,313.506 351.275,329.255 142.326,120.298 157.189,105.436 	"/>
	<g>
		
			<rect x="159.822" y="106.547" transform="matrix(-0.7068 0.7074 -0.7074 -0.7068 370.7869 64.5056)" style="fill:#E8C790;" width="24.407" height="5.089"/>
		
			<rect x="179.642" y="126.397" transform="matrix(-0.7071 0.7071 -0.7071 -0.7071 418.6753 84.4692)" style="fill:#E8C790;" width="24.404" height="5.096"/>
		
			<rect x="199.464" y="146.196" transform="matrix(-0.7071 0.7071 -0.7071 -0.7071 466.5079 104.2474)" style="fill:#E8C790;" width="24.4" height="5.089"/>
		
			<rect x="219.268" y="166.036" transform="matrix(-0.7071 0.7071 -0.7071 -0.7071 514.3441 124.1088)" style="fill:#E8C790;" width="24.4" height="5.085"/>
		
			<rect x="180.011" y="111.773" transform="matrix(-0.707 0.7072 -0.7072 -0.707 398.3573 63.5939)" style="fill:#E8C790;" width="11.989" height="5.085"/>
		
			<rect x="199.85" y="131.569" transform="matrix(-0.7073 0.7069 -0.7069 -0.7073 446.2334 83.4577)" style="fill:#E8C790;" width="11.977" height="5.081"/>
		
			<rect x="219.665" y="151.389" transform="matrix(-0.7073 0.707 -0.707 -0.7073 494.0784 103.2714)" style="fill:#E8C790;" width="11.986" height="5.085"/>
		
			<rect x="240.371" y="187.1" transform="matrix(-0.7071 0.7071 -0.7071 -0.7071 565.2697 145.142)" style="fill:#E8C790;" width="24.407" height="5.085"/>
		
			<rect x="260.157" y="206.911" transform="matrix(-0.7071 0.7071 -0.7071 -0.7071 613.0508 164.9685)" style="fill:#E8C790;" width="24.404" height="5.081"/>
		
			<rect x="240.749" y="172.494" transform="matrix(-0.707 0.7072 -0.7072 -0.707 544.9706 124.2973)" style="fill:#E8C790;" width="11.977" height="5.089"/>
		
			<rect x="260.538" y="192.308" transform="matrix(-0.7069 0.7073 -0.7073 -0.7069 592.7583 144.0745)" style="fill:#E8C790;" width="11.981" height="5.085"/>
		
			<rect x="280.162" y="226.792" transform="matrix(-0.7071 0.7071 -0.7071 -0.7071 661.2594 184.7734)" style="fill:#E8C790;" width="24.4" height="5.093"/>
		
			<rect x="299.974" y="246.587" transform="matrix(-0.707 0.7072 -0.7072 -0.707 709.0728 204.4958)" style="fill:#E8C790;" width="24.404" height="5.089"/>
		
			<rect x="319.775" y="266.423" transform="matrix(-0.7071 0.7071 -0.7071 -0.7071 756.9051 224.4146)" style="fill:#E8C790;" width="24.4" height="5.089"/>
		
			<rect x="280.52" y="212.141" transform="matrix(-0.707 0.7072 -0.7072 -0.707 640.9073 163.8414)" style="fill:#E8C790;" width="11.989" height="5.085"/>
		
			<rect x="300.355" y="231.985" transform="matrix(-0.7076 0.7066 -0.7066 -0.7076 688.8288 184.0142)" style="fill:#E8C790;" width="11.974" height="5.081"/>
		
			<rect x="320.147" y="251.809" transform="matrix(-0.7072 0.707 -0.707 -0.7072 736.6151 203.6476)" style="fill:#E8C790;" width="11.985" height="5.085"/>
		
			<rect x="340.881" y="287.514" transform="matrix(-0.7071 0.7071 -0.7071 -0.7071 807.8539 245.4892)" style="fill:#E8C790;" width="24.407" height="5.085"/>
		
			<rect x="341.253" y="272.89" transform="matrix(-0.7071 0.7071 -0.7071 -0.7071 787.541 224.6588)" style="fill:#E8C790;" width="11.977" height="5.089"/>
		
			<rect x="361.084" y="292.704" transform="matrix(-0.7069 0.7073 -0.7073 -0.7069 835.3925 244.3236)" style="fill:#E8C790;" width="11.981" height="5.085"/>
	</g>
</g>
</svg>